<svg width="143" height="35" viewBox="0 0 143 35" fill="none" xmlns="http://www.w3.org/2000/svg">
<path d="M18.3975 8.10431C21.7534 8.10431 24.1205 10.7716 24.1205 14.5907V24.8658H22.2955C20.8874 24.8658 19.7459 23.7097 19.7459 22.2834V15.3181C19.7459 13.1358 18.8769 11.984 17.2889 11.984C15.3412 11.984 14.2026 13.4389 14.2026 16.0153V24.8658H9.91787V15.3181C9.91787 13.1358 9.10886 11.984 7.55077 11.984C5.57319 11.984 4.37465 13.4389 4.37465 16.0153V24.8658H0V8.49834H3.05626L3.86527 10.5291C5.03385 9.07424 6.80168 8.10431 8.71934 8.10431C10.7568 8.10431 12.4648 9.07424 13.3936 10.7413C14.5023 9.13486 16.36 8.10431 18.3975 8.10431Z" fill="#FF3366"/>
<path d="M37.262 8.49835H41.9363L34.8649 24.6537C32.9472 29.079 31.2393 30.7763 27.5838 30.7763H25.786V26.7754H27.3141C29.4116 26.7754 29.8311 26.1692 30.9697 23.7444L31.0296 23.6231L24.168 8.49835H28.9322L33.2469 18.5613L37.262 8.49835Z" fill="#FF3366"/>
<path d="M52.0392 20.9255H54.0168V24.8658H50.9306C47.365 24.8658 45.1776 22.6532 45.1776 19.016V12.0446H42.9051C42.5385 12.0446 42.2412 11.7436 42.2412 11.3722C42.2412 11.2006 42.306 11.0355 42.4223 10.9107L48.4861 4.40414C48.5929 4.28955 48.7416 4.22461 48.8971 4.22461C49.2093 4.22461 49.4624 4.48094 49.4624 4.79714V8.49835H53.9269V12.0446H49.5523V18.4401C49.5523 20.0162 50.4512 20.9255 52.0392 20.9255Z" fill="#FF3366"/>
<path d="M64.5581 25.3205C59.5242 25.3205 55.8088 21.6227 55.8088 16.6821C55.8088 11.7112 59.5242 8.04369 64.5581 8.04369C69.532 8.04369 73.2774 11.7112 73.2774 16.6821C73.2774 21.6227 69.532 25.3205 64.5581 25.3205ZM64.5581 21.168C67.075 21.168 68.8428 19.3191 68.8428 16.6821C68.8428 14.0451 67.075 12.1962 64.5581 12.1962C62.0112 12.1962 60.2434 14.0451 60.2434 16.6821C60.2434 19.3191 62.0112 21.168 64.5581 21.168Z" fill="#FF3366"/>
<path d="M83.1967 25.3205C78.6123 25.3205 75.586 22.3804 75.586 17.9551V8.49835H79.9607V17.4399C79.9607 19.7737 81.1592 21.168 83.1967 21.168C85.2043 21.168 86.4028 19.7434 86.4028 17.4399V8.49835H90.7775V17.9551C90.7775 22.3804 87.7811 25.3205 83.1967 25.3205Z" fill="#FF3366"/>
<path d="M101.433 8.40742H102.872V12.5902H100.984C98.5269 12.5902 97.5381 13.6814 97.5381 16.3487V24.8658H93.1634V8.49835H95.98L96.759 10.4988C97.8976 9.04393 99.3659 8.40742 101.433 8.40742Z" fill="#FF3366"/>
<path d="M105.691 24.8658C104.408 24.8658 103.369 23.8006 103.369 22.5016C103.369 21.2027 104.408 20.1375 105.691 20.1375C106.973 20.1375 108.013 21.2027 108.013 22.5016C108.013 23.8006 106.973 24.8658 105.691 24.8658Z" fill="#FF3366"/>
<path d="M120.917 8.49835H125.472L119.03 24.8658H114.985L108.423 8.49835H113.067L117.052 19.4706L120.917 8.49835Z" fill="#FF3366"/>
<path d="M137.037 8.10431C140.723 8.10431 143 10.8019 143 14.9544V24.8658H141.175C139.767 24.8658 138.625 23.7097 138.625 22.2834V15.6515C138.625 13.1964 137.696 11.984 135.809 11.984C133.562 11.984 132.183 13.6208 132.183 16.2578V24.8658H127.809V8.49835H130.805L131.674 10.5291C132.902 9.04393 134.82 8.10431 137.037 8.10431Z" fill="#FF3366"/>
</svg>
